
<svg width="95" height="81" viewBox="0 0 95 81" fill="none" xmlns="http://www.w3.org/2000/svg">
<path d="M9.18456 46.4577C10.1006 46.3674 10.9077 46.4549 11.6059 46.72C12.3042 46.9852 12.8612 47.3884 13.2772 47.9297C13.6932 48.4711 13.9358 49.1123 14.0053 49.8534C14.0747 50.5944 13.9555 51.2713 13.6477 51.884C13.3399 52.4967 12.8679 53.0014 12.2317 53.3981C11.5955 53.7949 10.8194 54.0384 9.90337 54.1287C8.98735 54.219 8.18023 54.1316 7.482 53.8664C6.78377 53.6013 6.22668 53.198 5.81073 52.6567C5.39478 52.1153 5.15208 51.4741 5.08264 50.7331C5.0132 49.992 5.13238 49.3151 5.4402 48.7024C5.74801 48.0897 6.22002 47.585 6.85623 47.1883C7.49244 46.7916 8.26855 46.5481 9.18456 46.4577ZM9.27998 47.476C8.52794 47.5502 7.90503 47.7386 7.41124 48.0413C6.91719 48.3413 6.55729 48.7179 6.33156 49.1712C6.10556 49.6217 6.01721 50.11 6.06651 50.6361C6.11581 51.1622 6.29334 51.6257 6.59912 52.0266C6.90464 52.4247 7.32788 52.7241 7.86884 52.9248C8.40955 53.1227 9.05591 53.1846 9.80795 53.1104C10.56 53.0363 11.183 52.8492 11.6771 52.5493C12.1709 52.2466 12.5308 51.87 12.7568 51.4195C12.9825 50.9662 13.0707 50.4765 13.0214 49.9504C12.9721 49.4243 12.7947 48.9622 12.4892 48.5641C12.1834 48.1632 11.7602 47.8638 11.2195 47.6659C10.6785 47.4652 10.032 47.4019 9.27998 47.476Z" fill="white"/>
<path d="M13.7702 44.165L5.15618 42.8286L5.69794 39.8221C5.80588 39.223 5.99867 38.745 6.27628 38.3881C6.55109 38.0307 6.8795 37.7838 7.2615 37.6474C7.6407 37.5106 8.0406 37.4748 8.46121 37.54C8.83134 37.5975 9.12513 37.7107 9.34257 37.8796C9.56051 38.0458 9.72042 38.2462 9.82228 38.4807C9.92465 38.7124 9.98729 38.9566 10.0102 39.2134L10.0943 39.2265C10.1586 38.9659 10.2988 38.7157 10.5149 38.4759C10.7311 38.2361 11.0123 38.0509 11.3587 37.9205C11.705 37.79 12.1053 37.76 12.5596 37.8305C12.9914 37.8975 13.3621 38.0557 13.6717 38.3052C13.9813 38.5547 14.1989 38.9064 14.3246 39.3604C14.4504 39.8145 14.4522 40.3802 14.3301 41.0577L13.7702 44.165ZM13.0325 42.98L13.4048 40.9141C13.5274 40.2339 13.4826 39.7305 13.2705 39.4041C13.056 39.0744 12.7595 38.8802 12.381 38.8215C12.0894 38.7763 11.8068 38.8087 11.5333 38.9188C11.257 39.0284 11.0199 39.2089 10.8218 39.4602C10.621 39.711 10.4867 40.024 10.4191 40.3991L10.0378 42.5155L13.0325 42.98ZM9.12928 42.3745L9.47734 40.4429C9.53384 40.1294 9.5231 39.8371 9.44512 39.566C9.36764 39.2921 9.23011 39.0636 9.03252 38.8804C8.83544 38.6945 8.58548 38.578 8.28264 38.531C7.9041 38.4723 7.55932 38.554 7.24833 38.7763C6.93453 38.9981 6.72617 39.3946 6.62327 39.9656L6.26916 41.9308L9.12928 42.3745Z" fill="white"/>
<path d="M9.48018 28.7475L9.93753 27.7923L15.6494 30.2692C16.1592 30.4903 16.548 30.7705 16.8159 31.1099C17.0837 31.4493 17.2294 31.8273 17.253 32.2437C17.2766 32.6602 17.179 33.097 16.9602 33.5541C16.7537 33.9855 16.4905 34.3349 16.1708 34.6025C15.8485 34.869 15.493 35.0342 15.1042 35.0982C14.7155 35.1622 14.317 35.1057 13.9086 34.9286L14.3586 33.9888C14.5849 34.0869 14.809 34.1174 15.0309 34.0803C15.2515 34.0395 15.4553 33.9418 15.6424 33.7873C15.8294 33.6327 15.9826 33.4309 16.1019 33.1818C16.2334 32.9071 16.2868 32.648 16.2619 32.4047C16.2371 32.1613 16.1355 31.9405 15.9571 31.7423C15.7774 31.5403 15.5224 31.3677 15.1921 31.2244L9.48018 28.7475Z" fill="white"/>
<path d="M20.2391 27.8689L13.4111 22.4675L16.8511 18.4622L17.5846 19.0424L14.8348 22.2441L17.1419 24.0692L19.7136 21.0749L20.4471 21.6551L17.8754 24.6494L20.1959 26.485L22.9902 23.2315L23.7236 23.8118L20.2391 27.8689Z" fill="white"/>
<path d="M27.9594 13.3236L27.0874 13.9245C26.8557 13.716 26.6072 13.5639 26.3419 13.468C26.0789 13.3705 25.8097 13.322 25.5343 13.3226C25.2595 13.3193 24.9884 13.3616 24.7209 13.4496C24.4534 13.5376 24.2001 13.664 23.961 13.8288C23.5251 14.1292 23.2092 14.5086 23.0136 14.9669C22.8202 15.4236 22.7733 15.9326 22.8729 16.4937C22.9747 17.0532 23.2496 17.6363 23.6975 18.2429C24.1453 18.8496 24.6265 19.2905 25.1409 19.5657C25.6576 19.8393 26.1709 19.9621 26.6808 19.9341C27.193 19.9046 27.6671 19.7396 28.1031 19.4391C28.3421 19.2743 28.5483 19.0841 28.7215 18.8684C28.8947 18.6527 29.0252 18.4199 29.1131 18.1701C29.2016 17.9163 29.241 17.6535 29.2312 17.3815C29.222 17.1057 29.154 16.8291 29.0271 16.5518L29.899 15.9509C30.0978 16.3542 30.2148 16.757 30.2501 17.1593C30.2854 17.5617 30.2474 17.9509 30.1361 18.327C30.023 18.7008 29.8438 19.0497 29.5985 19.3737C29.3555 19.696 29.0523 19.9824 28.689 20.2328C28.0749 20.656 27.421 20.8864 26.7273 20.9241C26.0336 20.9617 25.3509 20.8059 24.6793 20.4567C24.0077 20.1075 23.3992 19.5634 22.8536 18.8245C22.3081 18.0856 21.9738 17.3525 21.8506 16.6253C21.7275 15.898 21.7973 15.2237 22.0599 14.6022C22.3226 13.9807 22.761 13.4584 23.3751 13.0351C23.7384 12.7847 24.1173 12.601 24.5119 12.4839C24.9088 12.3652 25.3094 12.3162 25.7137 12.3369C26.1164 12.3554 26.5088 12.4462 26.891 12.6095C27.2716 12.7704 27.6277 13.0085 27.9594 13.3236Z" fill="white"/>
<path d="M30.0487 9.2818L29.7137 8.40744L35.8699 6.16127L36.2048 7.03563L33.6237 7.97738L36.4069 15.2425L35.413 15.6052L32.6298 8.34005L30.0487 9.2818Z" fill="white"/>
<path d="M44.2459 4.76718L45.0601 13.4564L44.0084 13.5601L43.1942 4.87087L44.2459 4.76718Z" fill="white"/>
<path d="M51.2889 13.3817L52.8386 4.78194L58.0036 5.58323L57.8371 6.50703L53.7152 5.86757L53.1916 8.77333L56.9266 9.35276L56.7601 10.2766L53.0251 9.69712L52.332 13.5435L51.2889 13.3817Z" fill="white"/>
<path d="M65.3168 14.0104L64.9111 14.8578L61.4153 13.3419L61.821 12.4945L65.3168 14.0104Z" fill="white"/>
<path d="M67.4034 19.9687L73.1034 13.3321L73.9302 13.9862L68.8426 19.9099L72.0165 22.4207L71.4042 23.1336L67.4034 19.9687Z" fill="white"/>
<path d="M73.692 25.3777L73.0353 24.4882L82.1353 22.0981L82.7818 22.9738L77.4804 30.5091L76.8238 29.6196L81.3396 23.3484L81.2992 23.2937L73.692 25.3777ZM76.7472 23.7675L79.3941 27.3527L78.6206 27.8858L75.9737 24.3006L76.7472 23.7675Z" fill="white"/>
<path d="M78.4229 32.3449L86.6311 29.35L87.6847 32.1002C87.9283 32.7361 88.0187 33.2981 87.9559 33.786C87.8958 34.273 87.7136 34.6838 87.4093 35.0183C87.105 35.3528 86.711 35.6083 86.2274 35.7847C85.7438 35.9612 85.2774 36.0196 84.8282 35.96C84.379 35.9005 83.9699 35.707 83.6009 35.3796C83.2345 35.0512 82.9305 34.5717 82.6889 33.9411L81.8363 31.7155L82.7341 31.3879L83.5745 33.5818C83.741 34.0163 83.9391 34.3426 84.1689 34.5608C84.3996 34.7816 84.6554 34.9087 84.9362 34.9422C85.2207 34.9773 85.5273 34.9349 85.8559 34.815C86.1846 34.6951 86.4485 34.5293 86.6476 34.3178C86.8467 34.1062 86.9618 33.8422 86.9929 33.5259C87.0266 33.2085 86.9593 32.83 86.7908 32.3901L86.127 30.6573L78.8005 33.3305L78.4229 32.3449ZM83.5779 34.8308L80.658 38.1792L80.2195 37.0346L83.1516 33.718L83.5779 34.8308Z" fill="white"/>
<path d="M88.6212 42.763C88.8576 42.5771 89.0552 42.3736 89.2142 42.1526C89.3768 41.9332 89.4967 41.6977 89.5739 41.446C89.6521 41.197 89.6841 40.9347 89.6698 40.6591C89.6556 40.3834 89.5921 40.0985 89.4795 39.8044C89.2947 39.3222 89.0012 38.9295 88.5988 38.6264C88.1964 38.3232 87.706 38.1443 87.1277 38.0895C86.5495 38.0348 85.905 38.137 85.1942 38.3964C84.4835 38.6557 83.9288 38.9925 83.5302 39.4067C83.1316 39.8209 82.8838 40.2752 82.7869 40.7696C82.6901 41.2639 82.738 41.7628 82.9309 42.2663C83.1095 42.7326 83.3671 43.1067 83.7035 43.3886C84.0436 43.6722 84.436 43.8461 84.8809 43.9103C85.3294 43.9762 85.8049 43.9175 86.3072 43.7342L86.3588 44.0596L85.4209 41.6114L86.3026 41.2897L87.4902 44.3897L86.6085 44.7114C85.9325 44.9581 85.2898 45.0295 84.6806 44.9256C84.0723 44.8244 83.5347 44.5737 83.0676 44.1733C82.6042 43.7746 82.2487 43.252 82.0011 42.6055C81.725 41.8848 81.6534 41.1892 81.7863 40.5186C81.9202 39.8507 82.2441 39.2493 82.758 38.7145C83.2728 38.1824 83.9631 37.7584 84.8288 37.4425C85.4781 37.2056 86.0949 37.0787 86.6792 37.0618C87.2672 37.0466 87.8052 37.1311 88.293 37.3155C88.7809 37.4999 89.2056 37.7738 89.5671 38.1372C89.9286 38.5005 90.2094 38.9432 90.4093 39.4652C90.5737 39.8944 90.6616 40.3184 90.6727 40.7371C90.6876 41.1575 90.632 41.5568 90.5058 41.935C90.3833 42.3149 90.1953 42.6628 89.9418 42.9788C89.6909 43.2938 89.3807 43.561 89.011 43.7805L88.6212 42.763Z" fill="white"/>
<path d="M83.1585 49.0722L91.3666 46.0773L93.2485 50.9896L92.3667 51.3113L90.8625 47.3846L88.089 48.3966L89.4958 52.0689L88.6141 52.3906L87.2073 48.7183L84.4178 49.7361L85.9464 53.7264L85.0647 54.0481L83.1585 49.0722Z" fill="white"/>
<g filter="url(#filter0_i_29_44)">
<path d="M48.6749 16.4529C47.4654 16.4529 46.4759 18.3177 46.4759 20.6171C46.4759 21.7193 46.7095 22.776 47.1218 23.5542C46.4759 23.5815 45.8849 23.7051 45.239 23.8704V25.933C47.5891 25.6181 49.9256 25.6324 52.1108 25.933V23.8704C51.4923 23.6947 50.8189 23.5958 50.2279 23.5542C50.6402 22.776 50.8739 21.7193 50.8739 20.6171C50.8739 18.3177 49.8843 16.4529 48.6749 16.4529ZM25.3423 25.5999C24.4833 26.4132 25.1787 28.3873 26.8953 30.014C27.7295 30.7948 28.6779 31.3934 29.5574 31.6667C29.1177 32.1221 28.7878 32.6036 28.458 33.1502L30.011 34.6077C31.3716 32.8639 33.0208 31.3023 34.8625 30.014L33.3232 28.5435C32.746 28.8298 32.2237 29.2202 31.7564 29.5845C31.4678 28.7517 30.8356 27.8538 30.011 27.073C28.9115 26.2649 26.6369 24.4183 25.3423 25.5999ZM67.3388 27.0704C66.5142 27.8538 65.8819 28.7517 65.5933 29.5845C65.1123 29.1681 64.6038 28.8558 64.0266 28.5435L62.4873 30.014C64.3289 31.3023 65.9782 32.8639 67.3388 34.6077L68.8918 33.1502C68.5895 32.6036 68.1771 32.1091 67.7923 31.6667C68.6582 31.3804 69.6065 30.7948 70.4311 30.014C72.1491 28.3873 72.85 26.4106 71.9841 25.5986C70.6235 24.5744 68.1359 26.3299 67.3388 27.0704ZM47.7815 28.049C42.7239 28.2572 38.1335 30.1701 34.6426 33.2022C34.1891 33.6056 33.7355 34.0221 33.3782 34.3995C30.1759 37.7048 28.1556 42.0513 27.9357 46.8532C27.9357 47.4388 27.9082 48.0374 27.9494 48.5449C28.1556 53.3338 30.1759 57.6802 33.3782 60.9856C33.8042 61.402 34.2578 61.8314 34.6426 62.1828C38.1335 65.2019 42.7239 67.1148 47.7815 67.323H47.809C48.3725 67.3491 49.0047 67.323 49.5682 67.323C54.6259 67.1148 59.2163 65.2019 62.7072 62.1698C63.1607 61.7664 63.6142 61.3499 63.9716 60.9726C67.1739 57.6672 69.1942 53.3208 69.4141 48.5319V48.5058C69.4416 47.9593 69.4141 47.3737 69.4141 46.8401C69.1942 42.0513 67.1739 37.7048 63.9716 34.3995C63.5455 33.97 63.1057 33.5406 62.7072 33.2022C59.2163 30.1701 54.6259 28.2572 49.5682 28.049C48.9498 28.023 48.3175 28.049 47.7815 28.049ZM48.6749 29.4414C49.2796 29.4414 49.7744 29.9099 49.7744 30.4825C49.7744 31.055 49.2796 31.5235 48.6749 31.5235C48.0702 31.5235 47.5754 31.055 47.5754 30.4825C47.5754 29.9099 48.0702 29.4414 48.6749 29.4414ZM49.6232 33.1372C53.1553 33.3454 56.3713 34.6727 58.8727 36.7679C59.34 37.1713 59.7935 37.5877 60.2058 38.0302C62.4185 40.3986 63.8204 43.4437 64.0403 46.8011C64.0953 47.3997 64.0403 47.9983 64.0403 48.5839C63.8204 51.9283 62.4185 54.9734 60.2058 57.3419C59.7798 57.7843 59.34 58.2137 58.8727 58.6041C56.3713 60.6993 53.1553 62.0266 49.6094 62.2348C48.9772 62.2479 48.345 62.2869 47.7266 62.2348C44.1944 62.0266 40.9784 60.6993 38.4908 58.6041H38.4771C38.0098 58.2137 37.57 57.7843 37.1577 57.3419C34.945 54.9865 33.5294 51.9413 33.3095 48.5839C33.2957 47.9853 33.2545 47.3997 33.3095 46.8141C33.3782 43.4567 35.1374 40.2424 37.1439 38.0302C37.57 37.5877 38.0098 37.1583 38.4771 36.7679C40.9784 34.6727 44.1944 33.3454 47.7403 33.1372C48.3725 33.0851 49.0047 33.1372 49.6232 33.1372ZM36.5942 34.7768C37.0203 35.1803 37.0203 35.8439 36.5942 36.2473C36.1681 36.6508 35.4672 36.6508 35.0412 36.2473C34.6151 35.8439 34.6151 35.1803 35.0412 34.7768C35.5222 34.3995 36.1681 34.3995 36.5942 34.7768ZM62.3086 34.7768C62.7346 35.1803 62.7346 35.8439 62.3086 36.2473C61.8825 36.6508 61.1816 36.6508 60.7556 36.2473C60.3295 35.8439 60.3295 35.1803 60.7556 34.7768C61.2366 34.3995 61.8825 34.3995 62.3086 34.7768ZM46.4759 35.6227V36.7549C46.8195 37.1713 47.0806 37.4706 47.5479 37.6398C47.4517 39.2534 47.328 40.9061 47.1631 42.5458C48.1801 42.2985 49.2521 42.2855 50.2004 42.5588C50.0355 40.9061 49.8981 39.2534 49.8019 37.6267C50.8876 37.3535 50.8739 36.5076 50.8739 35.6227C49.3621 35.4015 47.8778 35.4145 46.4759 35.6227ZM41.2121 37.6788C40.0164 38.4856 38.9581 39.4876 38.106 40.6198L38.9581 41.4266C39.5079 41.4917 39.9202 41.5307 40.3737 41.3355C41.5144 42.5458 42.6552 43.795 43.7684 45.0703C44.2769 44.2245 45.0191 43.5218 45.9261 43.0403C44.5655 41.9862 43.2461 40.9061 41.968 39.826C42.2154 39.4226 42.1466 38.9541 42.0642 38.4856L41.2121 37.6788ZM56.1377 37.6788L55.2856 38.4856C55.1894 39.0062 55.1756 39.3835 55.368 39.826C54.1036 40.9061 52.7705 41.9862 51.4236 43.0403C52.317 43.5218 53.0591 44.2245 53.5676 45.0834C54.6809 43.795 55.8353 42.5458 56.9623 41.3355C57.4021 41.5568 57.8831 41.5047 58.3779 41.4266L59.23 40.6198C58.3779 39.4876 57.3334 38.4856 56.1377 37.6788ZM71.6405 44.4327C71.9841 46.658 71.9566 48.8702 71.6405 50.9393H73.8258C74.0319 50.3537 74.1007 49.7161 74.1419 49.1565C74.9665 49.5469 76.0935 49.7681 77.2617 49.7681C79.6943 49.7681 81.6597 48.8312 81.6597 47.686C81.6597 46.5408 79.6943 45.6039 77.2617 45.6039C76.0935 45.6039 74.9665 45.8251 74.1419 46.2155C74.1281 45.6039 74.0045 45.0443 73.8258 44.4327H71.6405ZM23.5281 44.4457C23.3426 45.0313 23.2381 45.6429 23.1983 46.2155C22.3709 45.8251 21.2535 45.6169 20.0922 45.6169C17.6637 45.6169 15.6942 46.5539 15.6942 47.699C15.6942 48.8442 17.6637 49.7811 20.0922 49.7811C21.2576 49.7811 22.375 49.5599 23.1983 49.1695C23.2189 49.7811 23.3522 50.3407 23.5281 50.9523H25.6996C25.3725 48.7271 25.356 46.5148 25.6996 44.4457H23.5281ZM48.6749 44.693C46.9019 44.693 45.5138 46.0203 45.5138 47.686C45.5138 49.3517 46.9019 50.6791 48.6749 50.6791C50.4341 50.6791 51.8359 49.3517 51.8359 47.686C51.8359 46.0203 50.4341 44.693 48.6749 44.693ZM60.2196 45.6039C59.7798 45.9292 59.4637 46.1765 59.285 46.6189C57.5808 46.5278 55.8353 46.4107 54.1036 46.2545C54.3648 47.2305 54.3648 48.2326 54.1036 49.1305C55.8353 48.9743 57.567 48.8442 59.285 48.7531C59.4224 49.2086 59.8072 49.4949 60.2196 49.7681H61.4153C61.6489 48.3367 61.6352 46.9312 61.4153 45.6039H60.2196ZM35.9345 45.6169C35.7009 47.0353 35.7284 48.4538 35.9345 49.7811H37.1302C37.5563 49.4558 37.8998 49.2216 38.051 48.7661C39.769 48.8442 41.5007 48.9743 43.2461 49.1305C42.9713 48.1545 42.9713 47.1525 43.2324 46.2545C41.5007 46.4107 39.7552 46.5278 38.051 46.6189C37.9273 46.1635 37.5288 45.8772 37.1302 45.6169H35.9345ZM66.844 46.6449C67.4487 46.6449 67.9435 47.1134 67.9435 47.686C67.9435 48.2586 67.4487 48.7271 66.844 48.7271C66.2393 48.7271 65.7445 48.2586 65.7445 47.686C65.7445 47.1134 66.2393 46.6449 66.844 46.6449ZM30.5058 46.658C31.1105 46.658 31.6053 47.1264 31.6053 47.699C31.6053 48.2716 31.1105 48.7401 30.5058 48.7401C29.901 48.7401 29.4063 48.2716 29.4063 47.699C29.4063 47.1264 29.901 46.658 30.5058 46.658ZM53.5814 50.3017C53.0729 51.1475 52.3307 51.8503 51.4236 52.3317C52.7842 53.3858 54.1036 54.4659 55.3818 55.546C55.1344 55.9494 55.2031 56.4179 55.2856 56.8864L56.1377 57.6932C57.3334 56.8864 58.3917 55.8844 59.2438 54.7522L58.3917 53.9454C57.8419 53.8803 57.4296 53.8413 56.9761 54.0365C55.8353 52.8263 54.6946 51.577 53.5814 50.3017ZM43.7684 50.3017C42.6552 51.577 41.5144 52.8263 40.3737 54.0365C39.9477 53.8022 39.4529 53.8673 38.9719 53.9454L38.106 54.7522C38.9581 55.8974 40.0164 56.8994 41.2258 57.6932L42.0779 56.8864C42.1466 56.3659 42.1879 55.9755 41.9817 55.546C43.2599 54.4659 44.5793 53.3858 45.9261 52.3317C45.0328 51.8503 44.2769 51.1475 43.7684 50.3017ZM47.1493 52.8132C47.3143 54.4659 47.4517 56.1186 47.5479 57.7453C47.0669 57.8494 46.7508 58.2398 46.4759 58.6172V59.7493C47.9877 59.9705 49.472 59.9575 50.8739 59.7493V58.6172C50.5303 58.2007 50.2691 57.9014 49.8019 57.7323C49.8981 56.1186 50.0218 54.4659 50.1867 52.8263C49.1284 52.9954 48.0152 53.0475 47.1493 52.8132ZM36.6079 59.1247C37.034 59.5281 37.034 60.1918 36.6079 60.5952C36.1819 60.9986 35.481 60.9986 35.0549 60.5952C34.6289 60.1918 34.6289 59.5281 35.0549 59.1247C35.5359 58.7343 36.1819 58.7343 36.6079 59.1247ZM62.3086 59.1247C62.7346 59.5281 62.7346 60.1918 62.3086 60.5952C61.8825 60.9986 61.1816 60.9986 60.7556 60.5952C60.3295 60.1918 60.3295 59.5281 60.7556 59.1247C61.2366 58.7343 61.8963 58.7343 62.3086 59.1247ZM67.3388 60.7644C65.9782 62.5081 64.3289 64.0697 62.4873 65.358L64.0266 66.8285C64.6038 66.5422 65.126 66.1518 65.5933 65.7875C65.8819 66.6203 66.5142 67.5182 67.3388 68.299C69.0567 69.9257 71.132 70.5764 71.9979 69.7695C72.85 68.9497 72.1628 66.9847 70.4448 65.358C69.6202 64.5772 68.6719 63.9786 67.7923 63.7053C68.2321 63.2499 68.562 62.7684 68.8918 62.2218L67.3388 60.7644ZM30.011 60.7644L28.4717 62.2218C28.7878 62.7554 29.1726 63.2889 29.5712 63.7053C28.6916 63.9786 27.7433 64.5772 26.909 65.358C25.1952 66.9847 24.5012 68.9497 25.356 69.7695C26.2136 70.5894 28.3068 69.9257 30.0247 68.299C30.8494 67.5182 31.4816 66.6203 31.7702 65.7875C32.2512 66.2039 32.7597 66.5162 33.337 66.8285L34.8762 65.371C33.0209 64.0697 31.3854 62.5211 30.011 60.7644ZM48.6749 63.8485C49.2796 63.8485 49.7744 64.317 49.7744 64.8896C49.7744 65.4621 49.2796 65.9306 48.6749 65.9306C48.0702 65.9306 47.5754 65.4621 47.5754 64.8896C47.5754 64.317 48.0702 63.8485 48.6749 63.8485ZM45.239 69.4442V71.5003C45.8574 71.6825 46.5309 71.7736 47.1218 71.8126C46.7095 72.5934 46.4759 73.6475 46.4759 74.7536C46.4759 77.057 47.4654 78.9179 48.6749 78.9179C49.8843 78.9179 50.8739 77.057 50.8739 74.7536C50.8739 73.6475 50.6402 72.5934 50.2279 71.8126C50.8739 71.7866 51.4648 71.6695 52.1108 71.5003V69.4312C49.7606 69.7565 47.4242 69.7435 45.239 69.4442Z" fill="#699BF7"/>
</g>
<defs>
<filter id="filter0_i_29_44" x="13.4911" y="14.372" width="70.3676" height="70.628" filterUnits="userSpaceOnUse" color-interpolation-filters="sRGB">
<feFlood flood-opacity="0" result="BackgroundImageFix"/>
<feBlend mode="normal" in="SourceGraphic" in2="BackgroundImageFix" result="shape"/>
<feColorMatrix in="SourceAlpha" type="matrix" values="0 0 0 0 0 0 0 0 0 0 0 0 0 0 0 0 0 0 127 0" result="hardAlpha"/>
<feOffset dy="4"/>
<feGaussianBlur stdDeviation="2"/>
<feComposite in2="hardAlpha" operator="arithmetic" k2="-1" k3="1"/>
<feColorMatrix type="matrix" values="0 0 0 0 0 0 0 0 0 0 0 0 0 0 0 0 0 0 1 0"/>
<feBlend mode="normal" in2="shape" result="effect1_innerShadow_29_44"/>
</filter>
</defs>
</svg>
